<svg xmlns="http://www.w3.org/2000/svg" viewBox="0 0 160 600"><title>bg</title><g id="Layer_2" data-name="Layer 2"><g id="Layer_11" data-name="Layer 11"><path d="M-690,283.5h160v-137c-50.78,12.63-103.33,36-160,59.88Z" transform="translate(690 240)" fill="#ffd237"/><rect y="432" width="160" height="168" fill="#006bff"/><path d="M-640.23,346.4c.34-.24.67-.48,1-.74,4.22-3.33,6.66-8,8.07-13,1.61-5.58,1.92-11.91-1.46-17.59-9.69-16.27-28.85-7.53-36.34,1.28-4.31,5.08-6.33,11.9-4.13,18.63s9.1,13.08,17.15,14.6A21.1,21.1,0,0,0-640.23,346.4Z" transform="translate(690 240)" fill="#ffd237"/><rect x="38" y="561" width="3" height="39" fill="#f2a619"/><polygon points="131 527 160 556 160 600 108.24 600 80 527 131 527" fill="#0d4599"/><polygon points="80 527 109 556 109 600 52 600 52 556 80 527" fill="#e0f2ff"/><rect x="72" y="575" width="17" height="25" fill="#006aff"/><path d="M-538,352h-34V324h34Zm-31-3h28V327h-28Z" transform="translate(690 240)" fill="#ffd237"/><path d="M-690,257h160V186.76C-573.94,171-624,156.92-690,150Z" transform="translate(690 240)" fill="#006aff"/><path d="M-578.51-211.17h4.84l1.4,4.6c.47,1.53,1.25,4.39,1.25,4.39s.06,0,.07,0,.81-2.91,1.28-4.39l1.47-4.6h3.57l1.45,4.6c.49,1.58,1.24,4.39,1.24,4.39a0,0,0,0,0,.08,0s.78-2.84,1.25-4.39l1.4-4.6h4.5l-4.87,15.22H-564l-1.2-3.82c-.47-1.5-1.28-4.41-1.28-4.41a0,0,0,0,0-.07,0s-.82,2.85-1.31,4.38l-1.23,3.85h-4.51Z" transform="translate(690 240)" fill="#fff"/><rect x="78.88" y="20.79" width="4.9" height="23.26" fill="#fff"/><rect x="87.42" y="20.79" width="4.9" height="23.26" fill="#fff"/><path d="M-583.48-203.51a3.59,3.59,0,0,0-3.51-3.8,3.6,3.6,0,0,0-3.56,3.8A3.59,3.59,0,0,0-587-199.7a3.59,3.59,0,0,0,3.51-3.81m-11.78,0a8.06,8.06,0,0,1,8.27-8.05,8,8,0,0,1,8.21,8.05,8,8,0,0,1-8.21,8.07,8.07,8.07,0,0,1-8.27-8.07" transform="translate(690 240)" fill="#fff"/><path d="M-639.47-217.06v4.49h8.66s0,0,0,.06l-8.69,14.83a1.37,1.37,0,0,0-.26.86v.87h16.87v-4.48h-9.37s0,0,0-.06l8.8-15a1.08,1.08,0,0,0,.14-.6v-.94Z" transform="translate(690 240)" fill="#fff"/><path d="M-619.74-211.17h4.9v15.22h-4.9Zm2.45-7.62a2.79,2.79,0,0,1,2.8,2.76,2.79,2.79,0,0,1-2.8,2.76,2.79,2.79,0,0,1-2.79-2.76,2.78,2.78,0,0,1,2.79-2.76" transform="translate(690 240)" fill="#fff"/><path d="M-654.37-213.81a.2.2,0,0,1,.23.08c.39.44,1.62,1.95,2,2.36a.14.14,0,0,1,0,.2,44.67,44.67,0,0,0-6.81,6.69s0,0,0,0A77.57,77.57,0,0,1-647.14-208v-3.62l-11.14-8.84-11.16,8.84v3.95A78.09,78.09,0,0,1-654.37-213.81Z" transform="translate(690 240)" fill="#fff"/><path d="M-663.43-198.61a.19.19,0,0,1-.24,0l-2.08-2.49c-.06-.06-.07-.1,0-.21a39.53,39.53,0,0,1,7-7.6s0-.06,0,0a91.88,91.88,0,0,0-10.66,4.68v8.45h22.3V-204A81.85,81.85,0,0,0-663.43-198.61Z" transform="translate(690 240)" fill="#fff"/><path d="M-551.44-213.34a.71.71,0,0,0-.73-.74h-.78V-212h.35v-.64h.34l.39.64h.4l-.42-.68A.73.73,0,0,0-551.44-213.34Zm-.75.43h-.41v-.86h.41a.4.4,0,0,1,.4.43A.4.4,0,0,1-552.19-212.91Z" transform="translate(690 240)" fill="#fff"/><path d="M-552.27-214.82A1.83,1.83,0,0,0-554.1-213a1.83,1.83,0,0,0,1.83,1.84,1.83,1.83,0,0,0,1.83-1.84A1.83,1.83,0,0,0-552.27-214.82Zm0,3.32a1.49,1.49,0,0,1-1.48-1.49,1.48,1.48,0,0,1,1.48-1.48,1.49,1.49,0,0,1,1.48,1.48A1.49,1.49,0,0,1-552.27-211.5Z" transform="translate(690 240)" fill="#fff"/><rect width="160" height="600" fill="none"/></g></g></svg>