<svg xmlns="http://www.w3.org/2000/svg" viewBox="0 0 160 600"><title>cta</title><g id="Layer_2" data-name="Layer 2"><g id="Layer_10" data-name="Layer 10"><path d="M110.4,382.65h-83a2.53,2.53,0,0,0-2.62,2.43v29.14a2.53,2.53,0,0,0,2.62,2.43H132.15a2.54,2.54,0,0,0,2.63-2.43V385.08a2.54,2.54,0,0,0-2.63-2.43Z" fill="none" stroke="#fff" stroke-miterlimit="10" stroke-width="1.21"/><path d="M49.35,401.46H51a1.84,1.84,0,0,0,1.95,2c1.06,0,1.65-.49,1.65-1.37s-.35-1.12-1.46-1.57l-1.59-.64a2.64,2.64,0,0,1-1.88-2.61c0-1.59,1.29-2.69,3.14-2.69A3,3,0,0,1,56,397.69H54.39A1.52,1.52,0,0,0,52.71,396c-.92,0-1.46.47-1.46,1.21s.48,1.12,1.63,1.59l1.44.59a2.68,2.68,0,0,1,1.85,2.7c0,1.68-1.3,2.81-3.25,2.81C50.65,404.9,49.35,403.66,49.35,401.46Z" fill="#fff"/><path d="M63.67,400.56v4.11H62.15v-3.41c0-1.38-.37-2-1.43-2s-1.55.66-1.55,1.81v3.59H57.64v-9.81h1.53v4.19A2.31,2.31,0,0,1,61.29,398C62.86,398,63.67,398.85,63.67,400.56Z" fill="#fff"/><path d="M65.07,401.4a3.45,3.45,0,1,1,3.45,3.43A3.27,3.27,0,0,1,65.07,401.4Zm5.37,0a1.93,1.93,0,1,0-1.92,2.08A1.87,1.87,0,0,0,70.44,401.4Z" fill="#fff"/><path d="M80.25,401.4A3.18,3.18,0,0,1,77,404.83a2.54,2.54,0,0,1-2.1-1.05v3.83H73.43v-9.47h1.51V399a2.65,2.65,0,0,1,2.2-1C79,398,80.25,399.34,80.25,401.4Zm-1.53,0a1.92,1.92,0,1,0-1.9,2.08A1.9,1.9,0,0,0,78.72,401.4Z" fill="#fff"/><path d="M85.22,398.14h1.53v.91A2.31,2.31,0,0,1,88.87,398c1.57,0,2.38.88,2.38,2.59v4.11H89.73v-3.41c0-1.38-.37-2-1.43-2s-1.55.66-1.55,1.81v3.59H85.22Z" fill="#fff"/><path d="M92.65,401.4a3.45,3.45,0,1,1,3.45,3.43A3.27,3.27,0,0,1,92.65,401.4Zm5.37,0a1.93,1.93,0,1,0-1.92,2.08A1.87,1.87,0,0,0,98,401.4Z" fill="#fff"/><path d="M99.82,398.14h1.68l1.36,4.31,1.41-4.31h1.66l1.41,4.31,1.36-4.31h1.68L108,404.67h-1.29L105.1,400l-1.58,4.65h-1.29Z" fill="#fff"/><rect width="160" height="600" fill="none"/></g></g></svg>