<svg xmlns="http://www.w3.org/2000/svg" viewBox="0 0 160 600"><title>txt1a</title><g id="Layer_2" data-name="Layer 2"><g id="Layer_4_copy_2" data-name="Layer 4 copy 2"><path d="M34.69,444.06c0,2.88-2,4.65-5.38,4.65H22.13v-16.8H29c3.34,0,5.41,1.66,5.41,4.37a3.65,3.65,0,0,1-3.22,3.84A3.73,3.73,0,0,1,34.69,444.06ZM26,434.72v4.08h2.16c1.49,0,2.38-.77,2.38-2s-.87-2-2.38-2Zm4.75,8.83a2.08,2.08,0,0,0-2.33-2.06H26v4.27h2.42A2.09,2.09,0,0,0,30.77,443.55Z" fill="#fff"/><path d="M36.53,433.9a2.27,2.27,0,1,1,2.26,2.24A2.21,2.21,0,0,1,36.53,433.9Zm.43,3.24h3.65v11.57H37Z" fill="#fff"/><path d="M55.61,437.14V448a5.64,5.64,0,0,1-2.23,4.87,7.12,7.12,0,0,1-4.13,1,8,8,0,0,1-4.17-.93A4.18,4.18,0,0,1,43,449.72h3.74c.17.91,1,1.47,2.45,1.47,1.71,0,2.74-.75,2.74-2.81v-1.54a4.08,4.08,0,0,1-3.62,1.87c-3.44,0-5.5-2.49-5.5-5.9s2.21-6,5.54-6a3.9,3.9,0,0,1,3.58,2v-1.66Zm-3.5,5.72a2.77,2.77,0,1,0-5.52,0,2.77,2.77,0,1,0,5.52,0Z" fill="#fff"/><path d="M70.59,437.14V448a5.69,5.69,0,0,1-2.23,4.87,7.15,7.15,0,0,1-4.13,1,8.06,8.06,0,0,1-4.18-.93A4.14,4.14,0,0,1,58,449.72h3.74c.17.91,1,1.47,2.45,1.47,1.7,0,2.74-.75,2.74-2.81v-1.54a4.1,4.1,0,0,1-3.63,1.87c-3.43,0-5.5-2.49-5.5-5.9s2.21-6,5.55-6a3.91,3.91,0,0,1,3.58,2v-1.66Zm-3.51,5.72a2.77,2.77,0,1,0-2.78,3A2.78,2.78,0,0,0,67.08,442.86Z" fill="#fff"/><path d="M84.89,443.94H76.35c.07,1.51,1.08,2.32,2.71,2.32,1.13,0,1.85-.31,2.16-1h3.6c-.36,2.28-2.69,3.8-5.76,3.8-3.94,0-6.36-2.24-6.36-6.1s2.47-6.1,6.24-6.1c3.6,0,6,2.23,6,5.5A13,13,0,0,1,84.89,443.94Zm-3.53-2.28a2.18,2.18,0,0,0-2.45-2.36,2.32,2.32,0,0,0-2.56,2.36Z" fill="#fff"/><path d="M87.1,437.14h3.67v2.43A3.24,3.24,0,0,1,94,437a3.67,3.67,0,0,1,1,.1v3.41a7.91,7.91,0,0,0-1.1-.08c-2,0-3,1.3-3,3.87v4.46H87.1Z" fill="#fff"/><rect width="160" height="600" fill="none"/></g></g></svg>