<svg xmlns="http://www.w3.org/2000/svg" viewBox="0 0 160 600"><title>txt1c</title><g id="Layer_2" data-name="Layer 2"><g id="Layer_4" data-name="Layer 4"><path d="M34.78,498.93c0,3.62-2.23,6.1-5.42,6.1a4.21,4.21,0,0,1-3.7-1.95v6.43H22V493.14h3.65v1.66a4.34,4.34,0,0,1,3.79-2C32.62,492.83,34.78,495.28,34.78,498.93Zm-3.74,0A2.77,2.77,0,1,0,28.3,502,2.77,2.77,0,0,0,31,498.93Z" fill="#fff"/><path d="M48.63,497.56v7.15h-3.7v-5.95c0-1.94-.55-2.83-2-2.83s-2.23,1-2.23,2.73v6H37v-16.8h3.67v6.91a3.93,3.93,0,0,1,3.74-2C47.21,492.83,48.63,494.42,48.63,497.56Z" fill="#fff"/><path d="M50.64,498.93c0-3.53,2.45-6.1,6.44-6.1s6.4,2.57,6.4,6.1S61,505,57.08,505,50.64,502.46,50.64,498.93Zm9.2,0a2.77,2.77,0,1,0-2.76,3A2.72,2.72,0,0,0,59.84,498.93Z" fill="#fff"/><path d="M72.89,501.79v2.92a14,14,0,0,1-2.45.19c-1.72,0-4.1-.38-4.1-4.24v-4.61H64.52v-2.91h1.82v-3.43H70v3.43h2.62v2.91H70v3.84c0,1.7.7,2,1.61,2A12.14,12.14,0,0,0,72.89,501.79Z" fill="#fff"/><path d="M74.09,498.93c0-3.53,2.45-6.1,6.43-6.1s6.41,2.57,6.41,6.1-2.45,6.1-6.41,6.1S74.09,502.46,74.09,498.93Zm9.19,0a2.77,2.77,0,1,0-2.76,3A2.71,2.71,0,0,0,83.28,498.93Z" fill="#fff"/><path d="M88.25,501.23H91.9c0,.79.77,1.35,1.9,1.35.79,0,1.34-.39,1.34-1.06s-.26-.84-1.25-1.08l-2.42-.6a3.37,3.37,0,0,1-2.91-3.38c0-2.19,2-3.63,5-3.63,3.26,0,5.16,1.27,5.16,3.58H95c0-.82-.6-1.25-1.58-1.25-.79,0-1.32.38-1.32.94s.34.86,1.27,1.1l2.45.67c1.82.48,2.93,1.59,2.93,3.34,0,2.4-2,3.82-5.07,3.82C90.44,505,88.25,503.49,88.25,501.23Z" fill="#fff"/><path d="M100.51,502.6a2.38,2.38,0,1,1,2.38,2.35A2.35,2.35,0,0,1,100.51,502.6Z" fill="#fff"/><rect width="160" height="600" fill="none"/></g></g></svg>