<svg xmlns="http://www.w3.org/2000/svg" viewBox="0 0 160 600"><title>txt1b</title><g id="Layer_2" data-name="Layer 2"><g id="Layer_4_copy" data-name="Layer 4 copy"><path d="M33.65,469.56v7.15H30v-5.95c0-1.94-.56-2.83-2-2.83s-2.24,1-2.24,2.73v6H22v-16.8h3.67v6.91a4,4,0,0,1,3.75-2C32.24,464.83,33.65,466.42,33.65,469.56Z" fill="#fff"/><path d="M35.67,470.93c0-3.53,2.45-6.1,6.43-6.1s6.41,2.57,6.41,6.1S46.06,477,42.1,477,35.67,474.46,35.67,470.93Zm9.19,0a2.77,2.77,0,1,0-2.76,3A2.71,2.71,0,0,0,44.86,470.93Z" fill="#fff"/><path d="M50.62,465.14h3.67v1.68a3.95,3.95,0,0,1,6.94.15,4,4,0,0,1,3.7-2.14c3.31,0,4.1,2.28,4.1,4.71v7.17h-3.7v-6.5c0-1.61-.6-2.28-1.72-2.28s-2,.65-2,2.83v5.95H58v-6.53c0-1.6-.57-2.25-1.7-2.25s-2,.65-2,2.83v5.95H50.62Z" fill="#fff"/><path d="M83.21,471.94H74.67c.07,1.51,1.08,2.32,2.71,2.32,1.13,0,1.85-.31,2.16-1h3.6c-.36,2.28-2.69,3.8-5.76,3.8-3.94,0-6.36-2.24-6.36-6.1s2.47-6.1,6.24-6.1c3.6,0,6,2.23,6,5.5A11.31,11.31,0,0,1,83.21,471.94Zm-3.53-2.28a2.17,2.17,0,0,0-2.44-2.36,2.32,2.32,0,0,0-2.57,2.36Z" fill="#fff"/><rect width="160" height="600" fill="none"/></g></g></svg>