<svg xmlns="http://www.w3.org/2000/svg" viewBox="0 0 160 600"><title>txt2b</title><g id="Layer_2" data-name="Layer 2"><g id="Layer_7_copy" data-name="Layer 7 copy"><path d="M21.23,472.23h3.65c0,.79.77,1.35,1.89,1.35.79,0,1.35-.39,1.35-1.06s-.27-.84-1.25-1.08l-2.43-.6a3.37,3.37,0,0,1-2.9-3.38c0-2.19,2-3.63,4.94-3.63,3.27,0,5.17,1.27,5.17,3.58H28c0-.82-.6-1.25-1.58-1.25-.79,0-1.32.38-1.32.94s.33.86,1.27,1.1l2.45.67c1.82.48,2.93,1.59,2.93,3.34,0,2.4-2,3.82-5.07,3.82C23.41,476,21.23,474.49,21.23,472.23Z" fill="#fff"/><path d="M45.69,468.56v7.15H42v-5.95c0-1.94-.55-2.83-2-2.83s-2.23,1-2.23,2.73v6H34v-16.8h3.68v6.91a3.93,3.93,0,0,1,3.74-2C44.27,463.83,45.69,465.42,45.69,468.56Z" fill="#fff"/><path d="M47.7,469.93c0-3.53,2.45-6.1,6.43-6.1s6.41,2.57,6.41,6.1-2.45,6.1-6.41,6.1S47.7,473.46,47.7,469.93Zm9.19,0a2.77,2.77,0,1,0-2.76,3A2.71,2.71,0,0,0,56.89,469.93Z" fill="#fff"/><path d="M75.42,469.93c0,3.62-2.23,6.1-5.42,6.1a4.21,4.21,0,0,1-3.7-1.95v6.43H62.65V464.14H66.3v1.66a4.34,4.34,0,0,1,3.79-2C73.26,463.83,75.42,466.28,75.42,469.93Zm-3.74,0A2.77,2.77,0,1,0,68.94,473,2.77,2.77,0,0,0,71.68,469.93Z" fill="#fff"/><path d="M90.4,469.93c0,3.62-2.24,6.1-5.43,6.1a4.23,4.23,0,0,1-3.7-1.95v6.43H77.63V464.14h3.64v1.66a4.37,4.37,0,0,1,3.8-2C88.24,463.83,90.4,466.28,90.4,469.93Zm-3.75,0A2.77,2.77,0,1,0,83.92,473,2.77,2.77,0,0,0,86.65,469.93Z" fill="#fff"/><path d="M92.17,460.9a2.27,2.27,0,1,1,2.26,2.24A2.21,2.21,0,0,1,92.17,460.9Zm.43,3.24h3.65v11.57H92.6Z" fill="#fff"/><path d="M99.3,464.14H103v1.68a3.94,3.94,0,0,1,3.75-2c2.8,0,4.22,1.59,4.22,4.73v7.15h-3.7v-5.95c0-1.94-.55-2.83-2-2.83s-2.23,1-2.23,2.73v6H99.3Z" fill="#fff"/><path d="M125.82,464.14V475a5.67,5.67,0,0,1-2.23,4.87,7.12,7.12,0,0,1-4.13,1,8.06,8.06,0,0,1-4.18-.93,4.19,4.19,0,0,1-2.06-3.22H117c.17.91,1,1.47,2.45,1.47,1.71,0,2.74-.75,2.74-2.81v-1.54a4.09,4.09,0,0,1-3.63,1.87c-3.43,0-5.49-2.49-5.49-5.9s2.2-6,5.54-6a3.9,3.9,0,0,1,3.58,2v-1.66Zm-3.5,5.72a2.79,2.79,0,0,0-2.79-3,3,3,0,1,0,2.79,3Z" fill="#fff"/><rect width="160" height="600" fill="none"/></g></g></svg>