<svg xmlns="http://www.w3.org/2000/svg" viewBox="0 0 160 600"><title>txt2a</title><g id="Layer_2" data-name="Layer 2"><g id="Layer_7_copy_2" data-name="Layer 7 copy 2"><path d="M31.43,446.67H25.48l-.58,2H20.8l5.68-16.8H30.4l5.71,16.8H32Zm-.87-3.05-2.11-7.46-2.11,7.46Z" fill="#fff"/><path d="M37.86,437.14h3.67v1.68a3.94,3.94,0,0,1,3.75-2c2.81,0,4.22,1.59,4.22,4.73v7.15H45.81v-5.95c0-1.94-.56-2.83-2-2.83s-2.24,1-2.24,2.73v6H37.86Z" fill="#fff"/><path d="M64.36,431.91v16.8H60.71v-1.63A4.18,4.18,0,0,1,57,449c-3.46,0-5.45-2.62-5.45-6.1s2.13-6.1,5.49-6.1a4,4,0,0,1,3.63,2v-6.89Zm-3.51,11a2.77,2.77,0,1,0-5.52,0A2.77,2.77,0,0,0,58.09,446C59.92,446,60.85,444.61,60.85,442.93Z" fill="#fff"/><rect width="160" height="600" fill="none"/></g></g></svg>