<svg xmlns="http://www.w3.org/2000/svg" viewBox="0 0 160 600"><title>txt2c</title><g id="Layer_2" data-name="Layer 2"><g id="Layer_7" data-name="Layer 7"><path d="M21.23,496.93c0-3.46,2.13-6.1,5.5-6.1a4,4,0,0,1,3.62,2v-1.66H34v11.57H30.35v-1.63A4.17,4.17,0,0,1,26.68,503C23.22,503,21.23,500.41,21.23,496.93Zm9.26,0a2.77,2.77,0,1,0-5.52,0A2.77,2.77,0,0,0,27.73,500C29.56,500,30.49,498.61,30.49,496.93Z" fill="#fff"/><path d="M37,485.91h3.68v16.8H37Z" fill="#fff"/><path d="M55,497.94H46.48c.07,1.51,1.08,2.32,2.71,2.32,1.13,0,1.85-.31,2.16-1H55c-.36,2.28-2.69,3.8-5.76,3.8-3.94,0-6.36-2.24-6.36-6.1s2.47-6.1,6.24-6.1c3.6,0,6,2.23,6,5.5A13,13,0,0,1,55,497.94Zm-3.53-2.28A2.18,2.18,0,0,0,49,493.3a2.32,2.32,0,0,0-2.56,2.36Z" fill="#fff"/><path d="M57.23,491.14H60.9v2.43A3.24,3.24,0,0,1,64.09,491a3.62,3.62,0,0,1,1,.1v3.41a7.91,7.91,0,0,0-1.1-.08c-2,0-3.05,1.3-3.05,3.87v4.46H57.23Z" fill="#fff"/><path d="M74.84,499.79v2.92a13.84,13.84,0,0,1-2.44.19c-1.73,0-4.11-.38-4.11-4.24v-4.61H66.47v-2.91h1.82v-3.43H72v3.43h2.62v2.91H72v3.84c0,1.7.7,2,1.61,2A12.14,12.14,0,0,0,74.84,499.79Z" fill="#fff"/><path d="M76,499.23h3.65c0,.79.77,1.35,1.9,1.35.79,0,1.34-.39,1.34-1.06s-.26-.84-1.24-1.08l-2.43-.6a3.36,3.36,0,0,1-2.9-3.38c0-2.19,2-3.63,4.94-3.63,3.26,0,5.16,1.27,5.16,3.58H82.84c0-.82-.6-1.25-1.59-1.25-.79,0-1.32.38-1.32.94s.34.86,1.27,1.1l2.45.67c1.83.48,2.93,1.59,2.93,3.34,0,2.4-2,3.82-5.06,3.82C78.23,503,76,501.49,76,499.23Z" fill="#fff"/><path d="M88.31,500.6A2.38,2.38,0,1,1,90.68,503,2.34,2.34,0,0,1,88.31,500.6Z" fill="#fff"/><rect width="160" height="600" fill="none"/></g></g></svg>