<svg xmlns="http://www.w3.org/2000/svg" viewBox="0 0 300 144"><defs><style>.cls-1{fill:#ffd237;}.cls-2{fill:#006aff;}.cls-3{fill:#f2a619;}.cls-4{fill:#0d4599;}.cls-5{fill:#e0f2ff;}.cls-6{fill:#fff;}</style></defs><title>footer</title><g id="Layer_2" data-name="Layer 2"><g id="_300x250" data-name="300x250"><path class="cls-1" d="M300,0c-35.59.34-71.17,6.35-112,17.21C145.87,28.4,90.33,34.63,69.17,35.78H69L300,64Z"/><path class="cls-2" d="M300,53.8C196,16.79,111.54-1.82,0,4.07V144H300Z"/><path class="cls-1" d="M191.89,132.35c.31-.22.61-.44.91-.68,3.84-3.06,6.06-7.38,7.36-11.9,1.46-5.12,1.75-10.93-1.34-16.16-8.84-14.94-26.31-6.91-33.13,1.18-3.94,4.67-5.78,10.93-3.78,17.11s8.3,12,15.65,13.42A19.15,19.15,0,0,0,191.89,132.35Z"/><rect class="cls-3" x="180" y="109" width="3" height="35"/><polygon class="cls-4" points="266 79 291 104 291 144 244.91 144 219 79 266 79"/><polygon class="cls-5" points="219 79 245 104 245 144 194 144 194 104 219 79"/><rect class="cls-2" x="212" y="122" width="15" height="22"/><path class="cls-1" d="M283,137H253V112h30Zm-27-3h24V115H256Z"/><path class="cls-6" d="M112.66,103.44h4.86l1.41,4.61c.47,1.52,1.26,4.39,1.26,4.39a0,0,0,0,0,.07,0s.81-2.92,1.27-4.39l1.48-4.61h3.59l1.45,4.61c.49,1.57,1.25,4.39,1.25,4.39a0,0,0,0,0,.07,0s.79-2.85,1.26-4.39l1.41-4.61h4.52l-4.89,15.22h-4.45L126,114.84c-.46-1.5-1.28-4.41-1.28-4.41a0,0,0,0,0-.07,0s-.82,2.85-1.31,4.38l-1.24,3.85h-4.52Z"/><rect class="cls-6" x="79.94" y="95.4" width="4.92" height="23.26"/><rect class="cls-6" x="88.5" y="95.4" width="4.92" height="23.26"/><path class="cls-6" d="M107.68,111.1a3.56,3.56,0,1,0-3.53,3.81,3.6,3.6,0,0,0,3.53-3.81m-11.82,0a8.27,8.27,0,1,1,8.29,8.07,8.07,8.07,0,0,1-8.29-8.07"/><path class="cls-6" d="M51.48,97.55V102h8.69s0,0,0,.06l-8.73,14.84a1.33,1.33,0,0,0-.26.85v.87H68.15v-4.47H58.74a0,0,0,0,1,0-.07l8.83-15a1,1,0,0,0,.15-.6v-.94Z"/><path class="cls-6" d="M71.28,103.44H76.2v15.22H71.28Zm2.46-7.62a2.76,2.76,0,1,1-2.8,2.76,2.79,2.79,0,0,1,2.8-2.76"/><path class="cls-6" d="M36.52,100.8a.19.19,0,0,1,.23.09c.39.43,1.63,1.94,2,2.35a.14.14,0,0,1,0,.2,44.51,44.51,0,0,0-6.84,6.69s0,0,0,0a77,77,0,0,1,11.9-3.54V103L32.59,94.17,21.39,103V107A79.24,79.24,0,0,1,36.52,100.8Z"/><path class="cls-6" d="M27.43,116a.19.19,0,0,1-.25,0l-2.09-2.48c-.05-.07-.06-.11,0-.22a39.59,39.59,0,0,1,7-7.6s0,0,0,0a95.93,95.93,0,0,0-10.7,4.68v8.46H43.77v-8.14A82.42,82.42,0,0,0,27.43,116Z"/><path class="cls-6" d="M139.84,101.27a.71.71,0,0,0-.73-.74h-.79v2.12h.35V102H139l.38.63h.4l-.42-.68A.72.72,0,0,0,139.84,101.27Zm-.75.43h-.42v-.86h.42a.43.43,0,0,1,0,.86Z"/><path class="cls-6" d="M139,99.79a1.84,1.84,0,1,0,1.84,1.84A1.83,1.83,0,0,0,139,99.79Zm0,3.32a1.49,1.49,0,1,1,1.48-1.48A1.48,1.48,0,0,1,139,103.11Z"/></g></g></svg>