<svg xmlns="http://www.w3.org/2000/svg" viewBox="0 0 300 250"><title>footer</title><g id="Layer_2" data-name="Layer 2"><g id="Layer_9" data-name="Layer 9"><path d="M300,106c-35.26.44-70.55,6.44-111,17.23-42.08,11.21-97.63,17.46-118.78,18.61H70L300,170Z" fill="#ffd237"/><path d="M300,145c-99.68-27.31-188.18-40.08-300-35V250H300Z" fill="#006aff"/><path d="M191.89,238.36c.31-.22.61-.44.91-.68,3.84-3.06,6.06-7.38,7.36-11.9,1.46-5.12,1.75-10.93-1.34-16.16-8.84-14.94-26.31-6.91-33.13,1.18-3.94,4.67-5.78,10.93-3.78,17.11s8.3,12,15.65,13.42A19.15,19.15,0,0,0,191.89,238.36Z" fill="#ffd237"/><rect x="180" y="215" width="3" height="35" fill="#f2a619"/><polygon points="266 185 291 210 291 250 244.91 250 220 185 266 185" fill="#0d4599"/><polygon points="220 185 245 210 245 250 194 250 194 210 220 185" fill="#e0f2ff"/><rect x="212" y="228" width="15" height="22" fill="#006aff"/><path d="M283,243H253V218h30Zm-27-3h24V221H256Z" fill="#ffd237"/><path d="M112.35,211h4.79l1.39,4.54c.46,1.5,1.24,4.32,1.24,4.32a0,0,0,0,0,.07,0s.8-2.87,1.25-4.32l1.46-4.54h3.54l1.43,4.54c.48,1.55,1.23,4.32,1.23,4.32a0,0,0,0,0,.07,0s.78-2.8,1.24-4.32l1.39-4.54h4.45l-4.82,15H126.7l-1.19-3.77c-.46-1.47-1.27-4.34-1.27-4.34a0,0,0,0,0-.07,0s-.8,2.81-1.29,4.32L121.66,226H117.2Z" fill="#fff"/><rect x="79" y="203" width="5" height="23" fill="#fff"/><rect x="88" y="203" width="5" height="23" fill="#fff"/><path d="M107.19,218.36a3.56,3.56,0,1,0-3.52,3.8,3.59,3.59,0,0,0,3.52-3.8m-11.82,0a8.27,8.27,0,1,1,8.3,8.06,8.08,8.08,0,0,1-8.3-8.06" fill="#fff"/><path d="M51,204.81v4.48h8.7a0,0,0,0,1,0,.06L51,224.19a1.36,1.36,0,0,0-.26.85v.88H67.67v-4.48H58.26s0,0,0-.06l8.83-15a1.13,1.13,0,0,0,.14-.61v-.93Z" fill="#fff"/><path d="M71,211h5v15H71Zm2.26-7.93a2.77,2.77,0,1,1-2.8,2.76,2.79,2.79,0,0,1,2.8-2.76" fill="#fff"/><path d="M35.87,208.08a.2.2,0,0,1,.23.08c.38.43,1.6,1.91,1.93,2.32a.13.13,0,0,1,0,.19,43.33,43.33,0,0,0-6.71,6.58s0,0,0,0A76.89,76.89,0,0,1,43,213.81v-3.56l-11-8.69-11,8.69v3.89A77.2,77.2,0,0,1,35.87,208.08Z" fill="#fff"/><path d="M26.93,223.24a.18.18,0,0,1-.24,0l-2.05-2.49c-.06-.07-.06-.1,0-.21a39,39,0,0,1,6.9-7.61s0-.05,0,0A90.41,90.41,0,0,0,21,217.55V226H43v-8.13A80,80,0,0,0,26.93,223.24Z" fill="#fff"/><path d="M139.35,208.53a.71.71,0,0,0-.73-.75h-.78v2.13h.35v-.64h.34l.39.64h.4l-.42-.69A.71.71,0,0,0,139.35,208.53Zm-.75.43h-.41v-.87h.41a.41.41,0,0,1,.4.44A.4.4,0,0,1,138.6,209Z" fill="#fff"/><path d="M138.52,207a1.84,1.84,0,1,0,1.83,1.84A1.84,1.84,0,0,0,138.52,207Zm0,3.32a1.48,1.48,0,1,1,1.48-1.48A1.49,1.49,0,0,1,138.52,210.36Z" fill="#fff"/><rect width="300" height="250" fill="none"/></g></g></svg>