<svg xmlns="http://www.w3.org/2000/svg" viewBox="0 0 300 250"><defs><style>.cls-1{fill:#fff;}.cls-2{fill:none;}</style></defs><title>txt1b</title><g id="Layer_2" data-name="Layer 2"><g id="txt1b"><path class="cls-1" d="M33.67,170.69c0,3.63-2.23,6.1-5.42,6.1a4.2,4.2,0,0,1-3.7-1.94v6.43H20.9V164.91h3.65v1.65a4.33,4.33,0,0,1,3.79-2C31.51,164.6,33.67,167,33.67,170.69Zm-3.74,0a2.77,2.77,0,1,0-2.74,3.05A2.77,2.77,0,0,0,29.93,170.69Z"/><path class="cls-1" d="M47.52,169.33v7.15h-3.7v-5.95c0-1.95-.55-2.84-2-2.84s-2.23,1-2.23,2.74v6H35.88v-16.8h3.67v6.91a3.91,3.91,0,0,1,3.74-2C46.1,164.6,47.52,166.18,47.52,169.33Z"/><path class="cls-1" d="M49.53,170.69c0-3.52,2.45-6.09,6.44-6.09s6.4,2.57,6.4,6.09-2.44,6.1-6.4,6.1S49.53,174.22,49.53,170.69Zm9.2,0a2.77,2.77,0,1,0-2.76,3A2.72,2.72,0,0,0,58.73,170.69Z"/><path class="cls-1" d="M71.78,173.55v2.93a15,15,0,0,1-2.45.19c-1.73,0-4.1-.38-4.1-4.25v-4.61H63.4v-2.9h1.83v-3.43H68.9v3.43h2.62v2.9H68.9v3.84c0,1.71.7,2,1.61,2A9.92,9.92,0,0,0,71.78,173.55Z"/><path class="cls-1" d="M73,170.69c0-3.52,2.45-6.09,6.43-6.09s6.41,2.57,6.41,6.09-2.45,6.1-6.41,6.1S73,174.22,73,170.69Zm9.19,0a2.77,2.77,0,1,0-2.76,3A2.71,2.71,0,0,0,82.17,170.69Z"/><path class="cls-1" d="M87.14,173h3.65c0,.79.77,1.34,1.9,1.34.79,0,1.34-.38,1.34-1.05s-.26-.84-1.25-1.08l-2.42-.6a3.38,3.38,0,0,1-2.91-3.39c0-2.18,2-3.62,5-3.62,3.26,0,5.16,1.27,5.16,3.57H93.93c0-.81-.6-1.25-1.58-1.25-.79,0-1.32.39-1.32.94s.34.86,1.27,1.1l2.45.68c1.82.48,2.93,1.58,2.93,3.33,0,2.4-2,3.82-5.07,3.82C89.33,176.79,87.14,175.25,87.14,173Z"/><path class="cls-1" d="M99.4,174.37a2.38,2.38,0,1,1,2.38,2.35A2.36,2.36,0,0,1,99.4,174.37Z"/><rect class="cls-2" width="300" height="250"/></g></g></svg>