<svg xmlns="http://www.w3.org/2000/svg" viewBox="0 0 300 250"><defs><style>.cls-1{fill:#fff;}.cls-2{fill:none;}</style></defs><title>txt1a</title><g id="Layer_2" data-name="Layer 2"><g id="txt1a"><path class="cls-1" d="M33.57,146.82c0,2.88-2,4.66-5.37,4.66H21v-16.8h6.91c3.34,0,5.4,1.65,5.4,4.36a3.63,3.63,0,0,1-3.21,3.84A3.73,3.73,0,0,1,33.57,146.82Zm-8.66-9.34v4.08h2.16c1.49,0,2.38-.76,2.38-2s-.87-2-2.38-2Zm4.75,8.84a2.08,2.08,0,0,0-2.33-2.07H24.91v4.28h2.42A2.09,2.09,0,0,0,29.66,146.32Z"/><path class="cls-1" d="M35.42,136.67a2.27,2.27,0,1,1,2.26,2.23A2.21,2.21,0,0,1,35.42,136.67Zm.43,3.24H39.5v11.57H35.85Z"/><path class="cls-1" d="M54.5,139.91v10.82a5.66,5.66,0,0,1-2.23,4.88,7.12,7.12,0,0,1-4.13,1A8.06,8.06,0,0,1,44,155.7a4.19,4.19,0,0,1-2.06-3.21h3.75c.16.91,1,1.46,2.44,1.46,1.71,0,2.74-.74,2.74-2.81v-1.53a4.08,4.08,0,0,1-3.62,1.87c-3.44,0-5.5-2.5-5.5-5.91s2.21-6,5.54-6a3.91,3.91,0,0,1,3.58,2v-1.65ZM51,145.62a2.77,2.77,0,1,0-2.79,3A2.77,2.77,0,0,0,51,145.62Z"/><path class="cls-1" d="M69.48,139.91v10.82a5.71,5.71,0,0,1-2.23,4.88,7.15,7.15,0,0,1-4.13,1,8.06,8.06,0,0,1-4.18-.94,4.14,4.14,0,0,1-2.06-3.21h3.74c.17.91,1,1.46,2.45,1.46,1.7,0,2.74-.74,2.74-2.81v-1.53a4.1,4.1,0,0,1-3.63,1.87c-3.43,0-5.5-2.5-5.5-5.91s2.21-6,5.55-6a3.92,3.92,0,0,1,3.58,2v-1.65ZM66,145.62a2.77,2.77,0,1,0-2.78,3A2.77,2.77,0,0,0,66,145.62Z"/><path class="cls-1" d="M83.78,146.7H75.24c.07,1.51,1.08,2.33,2.71,2.33,1.13,0,1.85-.31,2.16-1h3.6c-.36,2.28-2.69,3.79-5.76,3.79-3.94,0-6.36-2.23-6.36-6.1s2.47-6.09,6.24-6.09c3.6,0,6,2.23,6,5.49A13,13,0,0,1,83.78,146.7Zm-3.53-2.28a2.17,2.17,0,0,0-2.45-2.35,2.31,2.31,0,0,0-2.56,2.35Z"/><path class="cls-1" d="M86,139.91h3.67v2.42a3.23,3.23,0,0,1,3.19-2.61,3.72,3.72,0,0,1,1,.09v3.41a7.82,7.82,0,0,0-1.1-.07c-2,0-3,1.3-3,3.86v4.47H86Z"/><path class="cls-1" d="M113.25,144.32v7.16h-3.69v-5.95c0-1.95-.56-2.84-2-2.84s-2.24,1-2.24,2.74v6h-3.67v-16.8h3.67v6.91a3.94,3.94,0,0,1,3.75-2C111.84,139.6,113.25,141.18,113.25,144.32Z"/><path class="cls-1" d="M115.27,145.69c0-3.53,2.45-6.09,6.43-6.09s6.41,2.56,6.41,6.09-2.45,6.1-6.41,6.1S115.27,149.22,115.27,145.69Zm9.19,0a2.77,2.77,0,1,0-2.76,3A2.71,2.71,0,0,0,124.46,145.69Z"/><path class="cls-1" d="M130.22,139.91h3.67v1.68a4,4,0,0,1,6.94.14,4,4,0,0,1,3.69-2.13c3.32,0,4.11,2.28,4.11,4.7v7.18h-3.7V145c0-1.6-.6-2.28-1.73-2.28s-1.94.65-1.94,2.84v5.95h-3.7V145c0-1.61-.57-2.26-1.7-2.26s-2,.65-2,2.84v5.95h-3.67Z"/><path class="cls-1" d="M162.81,146.7h-8.54c.07,1.51,1.08,2.33,2.71,2.33,1.13,0,1.85-.31,2.16-1h3.6c-.36,2.28-2.69,3.79-5.76,3.79-3.94,0-6.36-2.23-6.36-6.1s2.47-6.09,6.24-6.09c3.6,0,6,2.23,6,5.49A13,13,0,0,1,162.81,146.7Zm-3.53-2.28a2.17,2.17,0,0,0-2.45-2.35,2.31,2.31,0,0,0-2.56,2.35Z"/><rect class="cls-2" width="300" height="250"/></g></g></svg>