<svg xmlns="http://www.w3.org/2000/svg" viewBox="0 0 300 250"><defs><style>.cls-1{fill:#fff;}.cls-2{fill:none;}</style></defs><title>txt2a</title><g id="Layer_2" data-name="Layer 2"><g id="txt2a"><path class="cls-1" d="M30.26,149.44h-6l-.58,2h-4.1l5.69-16.8h3.91l5.71,16.8h-4.1Zm-.86-3.05-2.11-7.47-2.12,7.47Z"/><path class="cls-1" d="M36.69,139.91h3.68v1.68a3.91,3.91,0,0,1,3.74-2c2.81,0,4.22,1.58,4.22,4.72v7.16H44.64v-5.95c0-1.95-.55-2.84-2-2.84s-2.23,1-2.23,2.74v6H36.69Z"/><path class="cls-1" d="M63.19,134.68v16.8H59.54v-1.63a4.15,4.15,0,0,1-3.67,1.94c-3.46,0-5.45-2.62-5.45-6.1s2.14-6.09,5.5-6.09a4,4,0,0,1,3.62,2v-6.88Zm-3.5,11a2.78,2.78,0,1,0-5.53,0,2.78,2.78,0,1,0,5.53,0Z"/><path class="cls-1" d="M71.23,148h3.65c0,.79.77,1.34,1.89,1.34.8,0,1.35-.38,1.35-1.05s-.27-.84-1.25-1.08l-2.42-.6a3.38,3.38,0,0,1-2.91-3.39c0-2.18,2-3.62,4.95-3.62,3.26,0,5.16,1.27,5.16,3.57H78c0-.81-.6-1.25-1.58-1.25-.79,0-1.32.39-1.32.94s.33.86,1.27,1.1l2.45.68c1.82.48,2.93,1.58,2.93,3.33,0,2.4-2,3.82-5.07,3.82C73.41,151.79,71.23,150.25,71.23,148Z"/><path class="cls-1" d="M95.69,144.32v7.16H92v-5.95c0-1.95-.55-2.84-2-2.84s-2.23,1-2.23,2.74v6H84v-16.8h3.68v6.91a3.91,3.91,0,0,1,3.74-2C94.27,139.6,95.69,141.18,95.69,144.32Z"/><path class="cls-1" d="M97.7,145.69c0-3.53,2.45-6.09,6.43-6.09s6.41,2.56,6.41,6.09-2.45,6.1-6.41,6.1S97.7,149.22,97.7,145.69Zm9.19,0a2.77,2.77,0,1,0-2.76,3A2.71,2.71,0,0,0,106.89,145.69Z"/><path class="cls-1" d="M125.42,145.69c0,3.63-2.23,6.1-5.42,6.1a4.2,4.2,0,0,1-3.7-1.94v6.43h-3.65V139.91h3.65v1.65a4.33,4.33,0,0,1,3.79-2C123.26,139.6,125.42,142,125.42,145.69Zm-3.74,0a2.77,2.77,0,1,0-2.74,3.05A2.77,2.77,0,0,0,121.68,145.69Z"/><path class="cls-1" d="M140.4,145.69c0,3.63-2.24,6.1-5.43,6.1a4.2,4.2,0,0,1-3.69-1.94v6.43h-3.65V139.91h3.65v1.65a4.33,4.33,0,0,1,3.79-2C138.24,139.6,140.4,142,140.4,145.69Zm-3.75,0a2.77,2.77,0,1,0-2.73,3.05A2.77,2.77,0,0,0,136.65,145.69Z"/><path class="cls-1" d="M142.17,136.67a2.27,2.27,0,1,1,2.26,2.23A2.21,2.21,0,0,1,142.17,136.67Zm.43,3.24h3.65v11.57H142.6Z"/><path class="cls-1" d="M149.3,139.91H153v1.68a3.92,3.92,0,0,1,3.75-2c2.8,0,4.22,1.58,4.22,4.72v7.16h-3.7v-5.95c0-1.95-.55-2.84-2-2.84s-2.23,1-2.23,2.74v6H149.3Z"/><path class="cls-1" d="M175.82,139.91v10.82a5.68,5.68,0,0,1-2.23,4.88,7.12,7.12,0,0,1-4.13,1,8.06,8.06,0,0,1-4.18-.94,4.19,4.19,0,0,1-2.06-3.21H167c.17.91,1,1.46,2.45,1.46,1.71,0,2.74-.74,2.74-2.81v-1.53a4.09,4.09,0,0,1-3.63,1.87c-3.43,0-5.49-2.5-5.49-5.91s2.21-6,5.54-6a3.91,3.91,0,0,1,3.58,2v-1.65Zm-3.5,5.71a2.78,2.78,0,1,0-2.79,3A2.78,2.78,0,0,0,172.32,145.62Z"/><rect class="cls-2" width="300" height="250"/></g></g></svg>