<svg xmlns="http://www.w3.org/2000/svg" viewBox="0 0 300 250"><defs><style>.cls-1{fill:#fff;}.cls-2{fill:none;}</style></defs><title>txt2b</title><g id="Layer_2" data-name="Layer 2"><g id="txt2b"><path class="cls-1" d="M20.06,170.69c0-3.45,2.14-6.09,5.5-6.09a4,4,0,0,1,3.62,2v-1.65h3.65v11.57H29.18v-1.63a4.15,4.15,0,0,1-3.67,1.94C22.05,176.79,20.06,174.17,20.06,170.69Zm9.27,0a2.77,2.77,0,1,0-5.52,0,2.77,2.77,0,1,0,5.52,0Z"/><path class="cls-1" d="M35.88,159.68h3.67v16.8H35.88Z"/><path class="cls-1" d="M53.85,171.7H45.31c.07,1.51,1.08,2.33,2.71,2.33,1.13,0,1.85-.31,2.16-1h3.6c-.36,2.28-2.69,3.79-5.76,3.79-3.93,0-6.36-2.23-6.36-6.1s2.47-6.09,6.24-6.09c3.6,0,6.05,2.23,6.05,5.49A11.31,11.31,0,0,1,53.85,171.7Zm-3.52-2.28a2.18,2.18,0,0,0-2.45-2.35,2.31,2.31,0,0,0-2.57,2.35Z"/><path class="cls-1" d="M56.06,164.91h3.67v2.42a3.24,3.24,0,0,1,3.2-2.61,3.72,3.72,0,0,1,1,.09v3.41a8.07,8.07,0,0,0-1.11-.07c-2,0-3.05,1.3-3.05,3.86v4.47H56.06Z"/><path class="cls-1" d="M73.68,173.55v2.93a15,15,0,0,1-2.45.19c-1.73,0-4.11-.38-4.11-4.25v-4.61H65.3v-2.9h1.82v-3.43H70.8v3.43h2.61v2.9H70.8v3.84c0,1.71.69,2,1.61,2A10.13,10.13,0,0,0,73.68,173.55Z"/><path class="cls-1" d="M74.88,173h3.65c0,.79.76,1.34,1.89,1.34.79,0,1.35-.38,1.35-1.05s-.27-.84-1.25-1.08l-2.43-.6a3.38,3.38,0,0,1-2.9-3.39c0-2.18,2-3.62,4.94-3.62,3.27,0,5.16,1.27,5.16,3.57H81.67c0-.81-.6-1.25-1.58-1.25-.8,0-1.32.39-1.32.94s.33.86,1.27,1.1l2.45.68c1.82.48,2.92,1.58,2.92,3.33,0,2.4-2,3.82-5.06,3.82C77.06,176.79,74.88,175.25,74.88,173Z"/><path class="cls-1" d="M87.14,174.37a2.38,2.38,0,1,1,2.38,2.35A2.35,2.35,0,0,1,87.14,174.37Z"/><rect class="cls-2" width="300" height="250"/></g></g></svg>