<svg xmlns="http://www.w3.org/2000/svg" viewBox="0 0 728 90"><title>bg</title><g id="Layer_2" data-name="Layer 2"><g id="Layer_12" data-name="Layer 12"><path d="M157,90H612V60.52C359.8,8.78,235.62,40.4,157,90Z" fill="#ffd237"/><path d="M221,90H728V0H348C290.23,24.09,253.55,58.56,221,90Z" fill="#006aff"/><path d="M286.88,82.2c.18-.12.34-.24.5-.37a12.42,12.42,0,0,0,4-6.47,10.91,10.91,0,0,0-.74-8.8c-4.84-8.14-14.42-3.76-18.16.64a9.65,9.65,0,0,0-2.07,9.31A11.61,11.61,0,0,0,279,83.82,10.55,10.55,0,0,0,286.88,82.2Z" fill="#ffd237"/><rect x="281" y="71" width="2" height="19" fill="#f2a619"/><polygon points="330 53 344 67 344 90 318 90 303 53 330 53" fill="#0d4599"/><polygon points="303 53 318 67 318 90 289 90 289 67 303 53" fill="#e0f2ff"/><rect x="299" y="77" width="9" height="13" fill="#006aff"/><path d="M340,86H323V72h17Zm-15-2h13V74H325Z" fill="#ffd237"/><path d="M677.35,42h4.79l1.39,4.54c.46,1.5,1.24,4.32,1.24,4.32a0,0,0,0,0,.07,0s.8-2.87,1.25-4.32L687.55,42h3.54l1.43,4.54c.48,1.55,1.23,4.32,1.23,4.32a0,0,0,0,0,.07,0s.78-2.8,1.24-4.32L696.45,42h4.45l-4.82,15H691.7l-1.19-3.77c-.46-1.47-1.27-4.34-1.27-4.34a0,0,0,0,0-.07,0s-.8,2.81-1.29,4.32L686.66,57H682.2Z" fill="#fff"/><rect x="644" y="34" width="5" height="23" fill="#fff"/><rect x="653" y="34" width="5" height="23" fill="#fff"/><path d="M672.19,49.36a3.56,3.56,0,1,0-3.52,3.8,3.59,3.59,0,0,0,3.52-3.8m-11.82,0a8.27,8.27,0,1,1,8.3,8.06,8.08,8.08,0,0,1-8.3-8.06" fill="#fff"/><path d="M616,35.81v4.48h8.7a0,0,0,0,1,0,.06L616,55.19a1.36,1.36,0,0,0-.26.85v.88h16.94V52.44h-9.41s0,0,0-.06l8.83-15a1.13,1.13,0,0,0,.14-.61v-.93Z" fill="#fff"/><path d="M636,42h5V57h-5Zm2.26-7.93a2.77,2.77,0,1,1-2.8,2.76,2.79,2.79,0,0,1,2.8-2.76" fill="#fff"/><path d="M600.87,39.08a.2.2,0,0,1,.23.08c.38.43,1.6,1.91,1.93,2.32a.13.13,0,0,1,0,.19,43.33,43.33,0,0,0-6.71,6.58s0,0,0,0A76.89,76.89,0,0,1,608,44.81V41.25l-11-8.69-11,8.69v3.89A77.2,77.2,0,0,1,600.87,39.08Z" fill="#fff"/><path d="M591.93,54.24a.18.18,0,0,1-.24,0l-2.05-2.49c-.06-.07-.06-.1,0-.21a39,39,0,0,1,6.9-7.61s0,0,0,0A90.41,90.41,0,0,0,586,48.55V57h22V48.87A80,80,0,0,0,591.93,54.24Z" fill="#fff"/><path d="M704.35,39.53a.71.71,0,0,0-.73-.75h-.78v2.13h.35v-.64h.34l.39.64h.4l-.42-.69A.71.71,0,0,0,704.35,39.53Zm-.75.43h-.41v-.87h.41a.41.41,0,0,1,.4.44A.4.4,0,0,1,703.6,40Z" fill="#fff"/><path d="M703.52,38a1.84,1.84,0,1,0,1.83,1.84A1.84,1.84,0,0,0,703.52,38Zm0,3.32A1.48,1.48,0,1,1,705,39.88,1.49,1.49,0,0,1,703.52,41.36Z" fill="#fff"/><rect width="728" height="90" fill="none"/></g></g></svg>