<svg xmlns="http://www.w3.org/2000/svg" viewBox="0 0 728 90"><title>cta</title><g id="Layer_2" data-name="Layer 2"><g id="Layer_17" data-name="Layer 17"><path d="M-21.47-210h-83a2.54,2.54,0,0,0-2.63,2.43v29.14a2.54,2.54,0,0,0,2.63,2.43H.28a2.53,2.53,0,0,0,2.62-2.43v-29.14A2.53,2.53,0,0,0,.28-210Z" transform="translate(690 240)" fill="none" stroke="#fff" stroke-miterlimit="10" stroke-width="1.21"/><path d="M-82.52-191.19h1.61a1.84,1.84,0,0,0,2,2c1.06,0,1.65-.49,1.65-1.37s-.35-1.12-1.46-1.57l-1.59-.64a2.64,2.64,0,0,1-1.88-2.61c0-1.59,1.29-2.69,3.14-2.69A3,3,0,0,1-75.87-195h-1.61a1.52,1.52,0,0,0-1.68-1.69c-.92,0-1.46.47-1.46,1.21s.48,1.12,1.63,1.59l1.44.59a2.68,2.68,0,0,1,1.85,2.7c0,1.68-1.3,2.81-3.25,2.81C-81.22-187.75-82.52-189-82.52-191.19Z" transform="translate(690 240)" fill="#fff"/><path d="M-68.2-192.09V-188h-1.52v-3.41c0-1.38-.37-2-1.43-2s-1.56.66-1.56,1.81V-188h-1.52v-9.81h1.52v4.19a2.34,2.34,0,0,1,2.13-1.08C-69-194.68-68.2-193.8-68.2-192.09Z" transform="translate(690 240)" fill="#fff"/><path d="M-66.8-191.25a3.27,3.27,0,0,1,3.45-3.43,3.27,3.27,0,0,1,3.44,3.43,3.27,3.27,0,0,1-3.44,3.43A3.27,3.27,0,0,1-66.8-191.25Zm5.36,0a1.87,1.87,0,0,0-1.91-2.07,1.87,1.87,0,0,0-1.92,2.07,1.88,1.88,0,0,0,1.92,2.08A1.87,1.87,0,0,0-61.44-191.25Z" transform="translate(690 240)" fill="#fff"/><path d="M-51.62-191.25a3.18,3.18,0,0,1-3.21,3.43,2.53,2.53,0,0,1-2.1-1.05V-185h-1.51v-9.47h1.51v.88a2.65,2.65,0,0,1,2.2-1.05C-52.87-194.68-51.62-193.31-51.62-191.25Zm-1.53,0a1.9,1.9,0,0,0-1.9-2.07A1.9,1.9,0,0,0-57-191.25,1.91,1.91,0,0,0-55-189.17,1.91,1.91,0,0,0-53.15-191.25Z" transform="translate(690 240)" fill="#fff"/><path d="M-46.65-194.51h1.52v.91A2.34,2.34,0,0,1-43-194.68c1.57,0,2.38.88,2.38,2.59V-188h-1.52v-3.41c0-1.38-.37-2-1.43-2s-1.56.66-1.56,1.81V-188h-1.52Z" transform="translate(690 240)" fill="#fff"/><path d="M-39.22-191.25a3.27,3.27,0,0,1,3.45-3.43,3.27,3.27,0,0,1,3.44,3.43,3.27,3.27,0,0,1-3.44,3.43A3.27,3.27,0,0,1-39.22-191.25Zm5.37,0a1.87,1.87,0,0,0-1.92-2.07,1.87,1.87,0,0,0-1.92,2.07,1.88,1.88,0,0,0,1.92,2.08A1.88,1.88,0,0,0-33.85-191.25Z" transform="translate(690 240)" fill="#fff"/><path d="M-32-194.51h1.68L-29-190.2l1.41-4.31h1.66l1.41,4.31,1.36-4.31h1.68L-23.9-188h-1.29l-1.58-4.65L-28.35-188h-1.29Z" transform="translate(690 240)" fill="#fff"/><rect width="728" height="90" fill="none"/></g></g></svg>