<svg xmlns="http://www.w3.org/2000/svg" viewBox="0 0 728 90"><title>txt1a</title><g id="Layer_2" data-name="Layer 2"><g id="Layer_13_copy" data-name="Layer 13 copy"><path d="M384,33.62c0,2.89-2,4.66-5.37,4.66h-7.18V21.48h6.91c3.34,0,5.41,1.66,5.41,4.37a3.65,3.65,0,0,1-3.22,3.84A3.72,3.72,0,0,1,384,33.62Zm-8.66-9.33v4.08h2.16c1.49,0,2.38-.77,2.38-2s-.87-2-2.38-2Zm4.75,8.83a2.08,2.08,0,0,0-2.33-2.06h-2.42v4.27h2.42A2.09,2.09,0,0,0,380.11,33.12Z" fill="#fff"/><path d="M385.87,23.47a2.27,2.27,0,1,1,2.26,2.24A2.21,2.21,0,0,1,385.87,23.47Zm.43,3.24H390V38.28H386.3Z" fill="#fff"/><path d="M405,26.71V37.54a5.64,5.64,0,0,1-2.23,4.87,7.12,7.12,0,0,1-4.13,1,8,8,0,0,1-4.17-.93,4.18,4.18,0,0,1-2.07-3.22h3.75c.16.91,1,1.46,2.44,1.46,1.71,0,2.74-.74,2.74-2.8V36.41a4.08,4.08,0,0,1-3.62,1.87c-3.44,0-5.5-2.49-5.5-5.9s2.21-6,5.54-6a3.9,3.9,0,0,1,3.58,2V26.71Zm-3.5,5.72a2.77,2.77,0,1,0-5.52,0,2.77,2.77,0,1,0,5.52,0Z" fill="#fff"/><path d="M419.93,26.71V37.54a5.69,5.69,0,0,1-2.23,4.87,7.15,7.15,0,0,1-4.13,1,8.06,8.06,0,0,1-4.18-.93,4.19,4.19,0,0,1-2.06-3.22h3.74c.17.91,1,1.46,2.45,1.46,1.7,0,2.74-.74,2.74-2.8V36.41a4.1,4.1,0,0,1-3.63,1.87c-3.43,0-5.49-2.49-5.49-5.9s2.2-6,5.54-6a3.91,3.91,0,0,1,3.58,2V26.71Zm-3.51,5.72a2.77,2.77,0,1,0-5.52,0,2.77,2.77,0,1,0,5.52,0Z" fill="#fff"/><path d="M434.23,33.51h-8.54c.07,1.51,1.08,2.32,2.71,2.32,1.13,0,1.85-.31,2.16-1h3.6c-.36,2.28-2.69,3.79-5.76,3.79-3.94,0-6.36-2.23-6.36-6.09s2.47-6.1,6.24-6.1c3.6,0,6.05,2.23,6.05,5.5A13,13,0,0,1,434.23,33.51Zm-3.53-2.29a2.17,2.17,0,0,0-2.44-2.35,2.32,2.32,0,0,0-2.57,2.35Z" fill="#fff"/><path d="M436.44,26.71h3.67v2.43a3.24,3.24,0,0,1,3.19-2.62,3.2,3.2,0,0,1,1,.1V30a7.8,7.8,0,0,0-1.1-.08c-2,0-3.05,1.3-3.05,3.87v4.46h-3.67Z" fill="#fff"/><path d="M463.7,31.13v7.15H460v-6c0-1.95-.55-2.83-2-2.83s-2.24,1-2.24,2.73v6.05h-3.67V21.48h3.67v6.91a4,4,0,0,1,3.75-2Q463.7,26.4,463.7,31.13Z" fill="#fff"/><path d="M465.72,32.5c0-3.53,2.45-6.1,6.43-6.1s6.41,2.57,6.41,6.1-2.45,6.09-6.41,6.09S465.72,36,465.72,32.5Zm9.19,0a2.77,2.77,0,1,0-5.52,0,2.77,2.77,0,1,0,5.52,0Z" fill="#fff"/><path d="M480.67,26.71h3.67v1.68a3.95,3.95,0,0,1,6.94.15A4,4,0,0,1,495,26.4c3.31,0,4.1,2.28,4.1,4.71v7.17h-3.7v-6.5c0-1.61-.6-2.28-1.73-2.28s-1.94.64-1.94,2.83v6H488V31.75c0-1.61-.57-2.25-1.7-2.25s-2,.64-2,2.83v6h-3.67Z" fill="#fff"/><path d="M513.26,33.51h-8.54c.07,1.51,1.08,2.32,2.71,2.32,1.13,0,1.85-.31,2.16-1h3.6c-.36,2.28-2.69,3.79-5.76,3.79-3.94,0-6.36-2.23-6.36-6.09s2.47-6.1,6.24-6.1c3.6,0,6.05,2.23,6.05,5.5A13,13,0,0,1,513.26,33.51Zm-3.53-2.29a2.17,2.17,0,0,0-2.44-2.35,2.32,2.32,0,0,0-2.57,2.35Z" fill="#fff"/><rect width="728" height="90" fill="none"/></g></g></svg>