<svg xmlns="http://www.w3.org/2000/svg" viewBox="0 0 728 90"><title>txt1b</title><g id="Layer_2" data-name="Layer 2"><g id="Layer_13" data-name="Layer 13"><path d="M384.12,58.5c0,3.62-2.23,6.09-5.42,6.09a4.2,4.2,0,0,1-3.7-1.94v6.43h-3.65V52.71H375v1.66a4.32,4.32,0,0,1,3.79-2C382,52.4,384.12,54.85,384.12,58.5Zm-3.74,0a2.77,2.77,0,1,0-2.74,3A2.77,2.77,0,0,0,380.38,58.5Z" fill="#fff"/><path d="M398,57.13v7.15h-3.7v-6c0-1.95-.55-2.83-2-2.83s-2.23,1-2.23,2.73v6.05h-3.67V47.48H390v6.91a3.93,3.93,0,0,1,3.74-2C396.55,52.4,398,54,398,57.13Z" fill="#fff"/><path d="M400,58.5c0-3.53,2.45-6.1,6.44-6.1s6.4,2.57,6.4,6.1-2.44,6.09-6.4,6.09S400,62,400,58.5Zm9.2,0a2.77,2.77,0,1,0-2.76,3A2.72,2.72,0,0,0,409.18,58.5Z" fill="#fff"/><path d="M422.23,61.35v2.93a14,14,0,0,1-2.45.19c-1.72,0-4.1-.38-4.1-4.24V55.62h-1.82V52.71h1.82V49.28h3.67v3.43H422v2.91h-2.62v3.84c0,1.7.7,2,1.61,2A9.82,9.82,0,0,0,422.23,61.35Z" fill="#fff"/><path d="M423.43,58.5c0-3.53,2.45-6.1,6.43-6.1s6.41,2.57,6.41,6.1-2.45,6.09-6.41,6.09S423.43,62,423.43,58.5Zm9.19,0a2.77,2.77,0,1,0-2.76,3A2.71,2.71,0,0,0,432.62,58.5Z" fill="#fff"/><path d="M437.59,60.8h3.65c0,.79.77,1.35,1.9,1.35.79,0,1.34-.39,1.34-1.06s-.26-.84-1.25-1.08l-2.42-.6A3.37,3.37,0,0,1,437.9,56c0-2.19,2-3.63,5-3.63,3.26,0,5.16,1.27,5.16,3.58h-3.63c0-.82-.6-1.25-1.58-1.25-.79,0-1.32.38-1.32.94s.34.86,1.27,1.1l2.45.67c1.82.48,2.93,1.59,2.93,3.34,0,2.4-2,3.81-5.07,3.81C439.78,64.59,437.59,63.06,437.59,60.8Z" fill="#fff"/><path d="M449.85,62.17a2.38,2.38,0,1,1,2.38,2.35A2.35,2.35,0,0,1,449.85,62.17Z" fill="#fff"/><rect width="728" height="90" fill="none"/></g></g></svg>