<svg xmlns="http://www.w3.org/2000/svg" viewBox="0 0 728 90"><title>txt2b</title><g id="Layer_2" data-name="Layer 2"><g id="Layer_15" data-name="Layer 15"><path d="M370.51,58.5c0-3.46,2.14-6.1,5.5-6.1a3.94,3.94,0,0,1,3.62,2V52.71h3.65V64.28h-3.65V62.65A4.15,4.15,0,0,1,376,64.59C372.5,64.59,370.51,62,370.51,58.5Zm9.27,0a2.77,2.77,0,1,0-2.76,3A2.73,2.73,0,0,0,379.78,58.5Z" fill="#fff"/><path d="M386.33,47.48H390v16.8h-3.67Z" fill="#fff"/><path d="M404.3,59.51h-8.54c.07,1.51,1.08,2.32,2.71,2.32,1.13,0,1.85-.31,2.16-1h3.6c-.36,2.28-2.69,3.79-5.76,3.79-3.93,0-6.36-2.23-6.36-6.09s2.47-6.1,6.24-6.1c3.6,0,6,2.23,6,5.5A11.31,11.31,0,0,1,404.3,59.51Zm-3.52-2.29a2.18,2.18,0,0,0-2.45-2.35,2.32,2.32,0,0,0-2.57,2.35Z" fill="#fff"/><path d="M406.51,52.71h3.67v2.43a3.25,3.25,0,0,1,3.2-2.62,3.28,3.28,0,0,1,1,.1V56a8.05,8.05,0,0,0-1.11-.08c-2,0-3.05,1.3-3.05,3.87v4.46h-3.67Z" fill="#fff"/><path d="M424.13,61.35v2.93a14,14,0,0,1-2.45.19c-1.73,0-4.1-.38-4.1-4.24V55.62h-1.83V52.71h1.83V49.28h3.67v3.43h2.61v2.91h-2.61v3.84c0,1.7.69,2,1.61,2A10.06,10.06,0,0,0,424.13,61.35Z" fill="#fff"/><path d="M425.33,60.8H429c0,.79.76,1.35,1.89,1.35.79,0,1.35-.39,1.35-1.06S432,60.25,431,60l-2.43-.6a3.37,3.37,0,0,1-2.9-3.38c0-2.19,2-3.63,4.94-3.63,3.27,0,5.16,1.27,5.16,3.58h-3.62c0-.82-.6-1.25-1.58-1.25-.8,0-1.32.38-1.32.94s.33.86,1.27,1.1l2.45.67c1.82.48,2.92,1.59,2.92,3.34,0,2.4-2,3.81-5.06,3.81C427.51,64.59,425.33,63.06,425.33,60.8Z" fill="#fff"/><path d="M437.59,62.17A2.38,2.38,0,1,1,440,64.52,2.34,2.34,0,0,1,437.59,62.17Z" fill="#fff"/><rect width="728" height="90" fill="none"/></g></g></svg>