<svg xmlns="http://www.w3.org/2000/svg" viewBox="0 0 728 90"><title>txt2a</title><g id="Layer_2" data-name="Layer 2"><g id="Layer_15_copy" data-name="Layer 15 copy"><path d="M380.71,36.24h-5.95l-.58,2h-4.1l5.69-16.8h3.91l5.71,16.8h-4.1Zm-.86-3.05-2.11-7.46-2.12,7.46Z" fill="#fff"/><path d="M387.14,26.71h3.68v1.68a3.93,3.93,0,0,1,3.74-2q4.21,0,4.22,4.73v7.15h-3.69v-6c0-1.95-.55-2.83-2-2.83s-2.23,1-2.23,2.73v6.05h-3.68Z" fill="#fff"/><path d="M413.64,21.48v16.8H410V36.65a4.15,4.15,0,0,1-3.67,1.94c-3.46,0-5.45-2.61-5.45-6.09s2.14-6.1,5.5-6.1a3.94,3.94,0,0,1,3.62,2V21.48Zm-3.5,11a2.77,2.77,0,1,0-5.52,0,2.77,2.77,0,1,0,5.52,0Z" fill="#fff"/><path d="M421.68,34.8h3.65c0,.79.77,1.35,1.89,1.35.8,0,1.35-.39,1.35-1.06s-.27-.84-1.25-1.08l-2.42-.6A3.37,3.37,0,0,1,422,30c0-2.19,2-3.63,4.95-3.63,3.26,0,5.16,1.27,5.16,3.58h-3.63c0-.82-.6-1.25-1.58-1.25-.79,0-1.32.38-1.32.94s.33.86,1.27,1.1l2.45.67c1.82.48,2.93,1.59,2.93,3.34,0,2.4-2,3.81-5.07,3.81C423.86,38.59,421.68,37.06,421.68,34.8Z" fill="#fff"/><path d="M446.14,31.13v7.15h-3.7v-6c0-1.95-.55-2.83-2-2.83s-2.23,1-2.23,2.73v6.05H434.5V21.48h3.67v6.91a3.93,3.93,0,0,1,3.74-2C444.72,26.4,446.14,28,446.14,31.13Z" fill="#fff"/><path d="M448.15,32.5c0-3.53,2.45-6.1,6.43-6.1S461,29,461,32.5s-2.45,6.09-6.41,6.09S448.15,36,448.15,32.5Zm9.19,0a2.77,2.77,0,1,0-5.52,0,2.77,2.77,0,1,0,5.52,0Z" fill="#fff"/><path d="M475.87,32.5c0,3.62-2.23,6.09-5.42,6.09a4.2,4.2,0,0,1-3.7-1.94v6.43H463.1V26.71h3.65v1.66a4.33,4.33,0,0,1,3.79-2C473.71,26.4,475.87,28.85,475.87,32.5Zm-3.74,0a2.77,2.77,0,1,0-5.52,0,2.77,2.77,0,1,0,5.52,0Z" fill="#fff"/><path d="M490.85,32.5c0,3.62-2.24,6.09-5.43,6.09a4.2,4.2,0,0,1-3.69-1.94v6.43h-3.65V26.71h3.65v1.66a4.32,4.32,0,0,1,3.79-2C488.69,26.4,490.85,28.85,490.85,32.5Zm-3.75,0a2.77,2.77,0,1,0-5.52,0,2.77,2.77,0,1,0,5.52,0Z" fill="#fff"/><path d="M492.62,23.47a2.27,2.27,0,1,1,2.26,2.24A2.21,2.21,0,0,1,492.62,23.47Zm.43,3.24h3.65V38.28h-3.65Z" fill="#fff"/><path d="M499.75,26.71h3.67v1.68a3.94,3.94,0,0,1,3.75-2c2.8,0,4.22,1.58,4.22,4.73v7.15h-3.7v-6c0-1.95-.55-2.83-2-2.83s-2.23,1-2.23,2.73v6.05h-3.67Z" fill="#fff"/><path d="M526.27,26.71V37.54A5.67,5.67,0,0,1,524,42.41a7.12,7.12,0,0,1-4.13,1,8.06,8.06,0,0,1-4.18-.93,4.19,4.19,0,0,1-2.06-3.22h3.74c.17.91,1,1.46,2.45,1.46,1.71,0,2.74-.74,2.74-2.8V36.41A4.09,4.09,0,0,1,519,38.28c-3.43,0-5.49-2.49-5.49-5.9s2.21-6,5.54-6a3.9,3.9,0,0,1,3.58,2V26.71Zm-3.5,5.72a2.79,2.79,0,0,0-2.79-3,2.76,2.76,0,0,0-2.73,3,2.77,2.77,0,1,0,5.52,0Z" fill="#fff"/><rect width="728" height="90" fill="none"/></g></g></svg>